# xmcd CD database file
#
# Track frame offsets:
#	150
#	19577
#	32298
#	52342
#	63770
#	73461
#	81413
#	94538
#	108162
#	126403
#	131684
#	154906
#	163220
#	183425
#	196604
#
# Disc length: 2961 seconds
#
# Revision: 0
# Processed by: cddbd v1.5.2PL0 Copyright (c) Steve Scherf et al.
# Submitted via: CDex 1.70beta2
#
DISCID=cd0b8f0f
DTITLE=Isabelle Olivier - island #41
DYEAR=2005
DGENRE=Jazz
TTITLE0=motians
TTITLE1=la vie
TTITLE2=island #41
TTITLE3=everything happens to me
TTITLE4=rettriger
TTITLE5=baleines
TTITLE6=océan blues
TTITLE7=sonic boom
TTITLE8=alhambra
TTITLE9=interlune
TTITLE10=donna lee
TTITLE11=nocturne
TTITLE12=fiction
TTITLE13=travel vibes
TTITLE14=body board
EXTD=YEAR: 2005
EXTT0=
EXTT1=
EXTT2=
EXTT3=
EXTT4=
EXTT5=
EXTT6=
EXTT7=
EXTT8=
EXTT9=
EXTT10=
EXTT11=
EXTT12=
EXTT13=
EXTT14=
PLAYORDER=
